<svg xmlns="http://www.w3.org/2000/svg" viewBox="0 0 64 64" role="img" aria-label="PackFlow Workbench">
  <defs>
    <linearGradient id="bg" x1="10" x2="54" y1="8" y2="58" gradientUnits="userSpaceOnUse">
      <stop stop-color="#08111f"/>
      <stop offset="1" stop-color="#0f2433"/>
    </linearGradient>
    <linearGradient id="edge" x1="14" x2="50" y1="12" y2="52" gradientUnits="userSpaceOnUse">
      <stop stop-color="#8bd8ff"/>
      <stop offset=".55" stop-color="#89f7c5"/>
      <stop offset="1" stop-color="#c4b5fd"/>
    </linearGradient>
    <filter id="glow" x="-30%" y="-30%" width="160%" height="160%">
      <feGaussianBlur stdDeviation="2.2" result="blur"/>
      <feMerge>
        <feMergeNode in="blur"/>
        <feMergeNode in="SourceGraphic"/>
      </feMerge>
    </filter>
  </defs>
  <rect width="64" height="64" rx="16" fill="url(#bg)"/>
  <path d="M18 23V16h28v7M18 41v7h28v-7M16 28h-5M16 36h-5M53 28h-5M53 36h-5" fill="none" stroke="#4cc9f0" stroke-linecap="round" stroke-width="3" opacity=".78"/>
  <path d="M20 20h24a6 6 0 0 1 6 6v12a6 6 0 0 1-6 6H20a6 6 0 0 1-6-6V26a6 6 0 0 1 6-6Z" fill="#0b1626" stroke="url(#edge)" stroke-width="3" filter="url(#glow)"/>
  <text x="32" y="38.5" fill="#eaffff" font-family="Inter, Segoe UI, Arial, sans-serif" font-size="19" font-weight="800" letter-spacing="0" text-anchor="middle">PF</text>
  <circle cx="18" cy="20" r="2" fill="#89f7c5"/>
  <circle cx="46" cy="44" r="2" fill="#8bd8ff"/>
</svg>
